<svg width="90" height="90" viewBox="0 0 90 90" fill="none" xmlns="http://www.w3.org/2000/svg">
<g clip-path="url(#clip0_1_7030)">
<path d="M89 45C89 69.3005 69.3005 89 45 89C20.6995 89 1 69.3005 1 45C1 20.6995 20.6995 1 45 1C69.3005 1 89 20.6995 89 45Z" stroke="#0A4264" stroke-width="2"/>
<path d="M73.8362 42.373C73.4418 40.6358 72.8459 38.9992 72.057 37.5138C71.1255 35.743 69.9338 34.1317 68.5155 32.7133C68.5155 32.7133 68.5071 32.7133 68.4987 32.6966L59.1831 23.381L59.0488 23.2467C59.0488 23.2467 59.0488 23.2467 59.0404 23.2467C55.7338 19.9737 51.353 17.9511 46.712 17.5567C44.6727 17.3804 42.5914 17.5315 40.5268 18.0015C38.7896 18.4043 37.1615 19.0002 35.676 19.7891C33.922 20.7206 32.3191 21.9039 30.9092 23.3139C30.9092 23.3139 30.9092 23.3139 30.9092 23.3223L21.5684 32.663C21.5684 32.663 21.5684 32.663 21.56 32.6714C21.5516 32.6798 21.5516 32.6882 21.5432 32.6966C21.5432 32.6966 21.5348 32.6966 21.5265 32.705C21.5181 32.7133 21.5097 32.7301 21.4929 32.7469C21.4845 32.7553 21.4677 32.7637 21.4593 32.7721C21.4593 32.7721 21.4593 32.7721 21.4509 32.7721C18.1695 36.0871 16.1469 40.4679 15.7525 45.1173C15.5763 47.1734 15.7273 49.2548 16.1973 51.3025C16.5917 53.0313 17.196 54.6595 17.9849 56.1449C18.908 57.8989 20.0914 59.5019 21.5097 60.9118L30.8756 70.2777L31.0099 70.412C34.3165 73.685 38.6973 75.7076 43.3383 76.102C43.3383 76.102 43.3551 76.102 43.3718 76.102C43.3886 76.102 43.4054 76.102 43.4222 76.102C43.9425 76.144 44.4713 76.1692 45 76.1692C46.5106 76.1692 48.0212 75.9929 49.5235 75.6488C51.2439 75.2544 52.872 74.6501 54.3743 73.8612C55.6919 73.1563 56.892 72.2751 58.025 71.3016C58.1592 71.2596 58.2935 71.1841 58.4026 71.075L59.1328 70.3448L67.7517 61.7175C67.8357 61.6335 67.8944 61.5412 67.9364 61.4405C68.1294 61.2643 68.3308 61.0964 68.5155 60.9118C71.8137 57.6052 73.8614 53.2244 74.2726 48.5666C74.4573 46.5104 74.3062 44.4291 73.8362 42.373ZM67.1391 59.5354C64.1598 62.5147 60.207 64.3611 55.994 64.7303C53.963 64.9066 51.8817 64.7303 49.834 64.2016C47.2407 63.5218 44.8993 62.3049 42.8599 60.5929L41.8025 59.5354L41.7521 59.4851C39.9729 57.6891 39.9897 54.7769 41.7689 52.9894C42.1466 52.6117 42.1466 51.9907 41.7689 51.613C41.3829 51.227 40.7702 51.2354 40.3926 51.613C37.9588 54.0384 37.8664 57.9157 40.0653 60.4838C40.1072 60.6348 40.1744 60.7859 40.3002 60.9034C40.7115 61.3146 41.1479 61.6923 41.5843 62.0615C43.1201 63.3624 44.8405 64.3778 46.6701 65.1499C43.7243 65.6954 40.7282 64.7723 38.6134 62.6574C36.4733 60.5173 35.5501 57.4625 36.1376 54.4748C36.4901 52.704 37.3461 51.1011 38.6134 49.8254C38.991 49.4478 38.991 48.8267 38.6134 48.4491C38.2357 48.0714 37.6147 48.0714 37.237 48.4491C35.6928 49.9933 34.6522 51.9487 34.2241 54.0888C33.5024 57.7059 34.6354 61.4237 37.237 64.0254C37.279 64.0673 37.3377 64.1009 37.3797 64.1429C39.4526 66.1402 42.1801 67.2397 45.0084 67.2397C45.7217 67.2397 46.4435 67.1725 47.1652 67.0298C47.9709 66.8704 48.8017 66.5599 49.6997 66.1402C51.0005 66.4508 52.3097 66.627 53.619 66.6774C52.5783 67.5334 51.4202 68.23 50.1697 68.7419C48.6255 69.3713 46.989 69.7154 45.2853 69.749C41.5423 69.8245 38.1098 68.4314 35.4914 65.8381C35.483 65.8297 35.4662 65.8213 35.4578 65.8129C35.4494 65.7962 35.4326 65.7878 35.4243 65.771C35.4243 65.771 35.4243 65.7542 35.4075 65.7458C32.8142 63.1274 31.4295 59.6445 31.505 55.9435C31.5386 54.307 31.8575 52.7208 32.4533 51.2354C32.4617 51.2186 32.4785 51.2186 32.4869 51.2018C32.5457 51.1011 32.5792 50.992 32.596 50.8745C33.2758 49.2967 34.2241 47.87 35.4494 46.6447C35.8271 46.2671 35.8271 45.646 35.4494 45.2684C35.0718 44.8907 34.4507 44.8907 34.0731 45.2684C32.7219 46.6195 31.6645 48.1889 30.8924 49.9261C30.8924 49.9261 30.8756 49.9261 30.8672 49.9429C30.649 50.1611 30.5567 50.4297 30.5735 50.6982C29.944 52.3515 29.5832 54.0972 29.5496 55.9099C29.4657 60.1229 31.0434 64.0925 33.9892 67.0886C33.9892 67.0886 33.9892 67.097 33.9975 67.1054C33.9975 67.1054 34.0059 67.1054 34.0143 67.1138L34.1067 67.2061H34.115C34.115 67.2061 34.1402 67.2313 34.1486 67.2397C37.0608 70.0931 40.8793 71.6624 44.9664 71.6624C45.0755 71.6624 45.1762 71.6624 45.2853 71.6624C47.224 71.6205 49.1039 71.2344 50.8663 70.5127C52.7629 69.7322 54.4582 68.5992 55.9101 67.1473C55.9101 67.1473 55.9101 67.1473 55.9101 67.1389L56.4724 66.5766C58.0585 66.4088 59.6027 66.0563 61.0882 65.5276L57.6893 68.9265C56.4136 70.1938 54.9701 71.268 53.384 72.1072C52.0328 72.8206 50.5641 73.3661 49.0031 73.7186C47.1484 74.1466 45.2685 74.2809 43.4222 74.1214C39.2344 73.7689 35.2816 71.9394 32.2939 68.9853C32.2855 68.9769 32.2687 68.9769 32.2603 68.9685C32.2435 68.9433 32.21 68.9181 32.1848 68.8929C32.1848 68.8929 32.1848 68.8762 32.1764 68.8762C29.2139 65.8885 27.3927 61.9357 27.0403 57.7478C26.864 55.7085 27.0403 53.644 27.5858 51.613C28.3159 48.8267 29.751 46.2167 31.7148 44.0683L32.2519 43.5311L32.2855 43.4976C34.0899 41.7184 37.002 41.7268 38.7812 43.5144C38.9658 43.7074 39.2176 43.7997 39.4694 43.7997C39.7212 43.7997 39.9645 43.7074 40.1576 43.5144C40.5352 43.1367 40.5352 42.5157 40.1576 42.138C37.707 39.679 33.771 39.6119 31.1945 41.8862C31.077 41.9366 30.9679 42.0037 30.8756 42.096C30.7245 42.2387 30.5902 42.3982 30.456 42.5492L30.2965 42.7339C28.7439 44.4207 27.5102 46.3846 26.629 48.4743C26.0583 45.5117 26.9899 42.4737 29.1132 40.3504C31.2616 38.202 34.3165 37.2788 37.2958 37.8663C39.0582 38.2104 40.6611 39.0664 41.9368 40.342C42.1298 40.5351 42.3732 40.6274 42.6249 40.6274C42.8767 40.6274 43.1285 40.5351 43.3131 40.342C43.6908 39.9644 43.6908 39.3433 43.3131 38.9657C41.7605 37.4215 39.8051 36.3808 37.665 35.9612C34.0479 35.2478 30.3385 36.3724 27.7368 38.9741C25.1352 41.5757 24.0022 45.2852 24.724 48.9107C24.8834 49.7163 25.1939 50.5556 25.6303 51.4536C25.3114 52.746 25.1268 54.0552 25.068 55.356C24.2204 54.3238 23.5238 53.1656 23.0119 51.9151C22.3825 50.3709 22.0468 48.7344 22.0132 47.0308C21.9377 43.3213 23.3308 39.8385 25.9325 37.2201C25.9325 37.2201 25.9576 37.1949 25.9744 37.1781C25.9744 37.1781 25.9744 37.1781 25.9828 37.1697C28.6012 34.5681 32.0841 33.1498 35.7935 33.2505C37.3377 33.284 38.84 33.5778 40.2583 34.1065C40.3002 34.1484 40.3254 34.2072 40.3674 34.2408C40.5604 34.3834 40.7702 34.4506 40.98 34.4506C41.0052 34.4506 41.0304 34.4338 41.0555 34.4338C42.5578 35.1052 43.9174 36.0283 45.0839 37.1949C45.2685 37.3879 45.5203 37.4802 45.7721 37.4802C46.0238 37.4802 46.2672 37.3879 46.4602 37.1949C46.8379 36.8172 46.8379 36.1962 46.4602 35.8185C45.0839 34.4338 43.4726 33.3512 41.685 32.5791C41.5171 32.4364 41.3241 32.3609 41.1227 32.3441C39.4358 31.6895 37.665 31.3286 35.8187 31.295C31.6561 31.2195 27.6781 32.7805 24.6904 35.701C24.6316 35.7346 24.5981 35.7598 24.5393 35.8437L24.5141 35.8689C21.5516 38.865 19.9655 42.8346 20.0494 47.0643C20.0914 49.003 20.4774 50.8829 21.1992 52.6369C21.9796 54.542 23.1126 56.2456 24.5645 57.6975L25.1352 58.2682C25.2946 59.8376 25.6387 61.3818 26.1591 62.8588L22.7769 59.4767C21.5013 58.201 20.4271 56.7575 19.5962 55.1798C18.8829 53.837 18.3373 52.3683 17.9849 50.799C17.5569 48.9442 17.4226 47.0727 17.582 45.218C17.9345 41.0218 19.7641 37.069 22.7266 34.0729L22.8105 33.989C25.7982 31.0265 29.751 29.1969 33.9472 28.8361C36.0033 28.6598 38.0846 28.8361 40.1072 29.3816C42.6753 30.0614 45 31.2699 47.0309 32.9735L48.1219 34.0645H48.1303C48.1303 34.0645 48.1303 34.0729 48.1387 34.0729L48.1723 34.1065C49.9431 35.9025 49.9263 38.8062 48.1471 40.5938C47.7695 40.9715 47.7695 41.5925 48.1471 41.9702C48.3401 42.1632 48.5835 42.2555 48.8353 42.2555C49.0871 42.2555 49.3304 42.1632 49.5235 41.9702C51.9573 39.528 52.0412 35.6255 49.8172 33.0574C49.7752 32.9064 49.6997 32.7553 49.5822 32.6378C49.1626 32.2266 48.743 31.8573 48.3066 31.4881C46.7792 30.204 45.0839 29.1969 43.2711 28.4248C46.2169 27.8877 49.1962 28.8109 51.3111 30.9174C53.4595 33.0658 54.3827 36.1291 53.7868 39.1C53.4427 40.8708 52.5867 42.4737 51.3111 43.7493C50.9334 44.127 50.9334 44.748 51.3111 45.1257C51.4957 45.3187 51.7475 45.411 51.9992 45.411C52.251 45.411 52.4944 45.3187 52.6874 45.1257C54.2316 43.5815 55.2723 41.6345 55.6919 39.4944C55.6919 39.4944 55.6919 39.4944 55.6919 39.486C56.4136 35.8773 55.289 32.1594 52.6874 29.5494C50.0858 26.9478 46.3595 25.8232 42.7592 26.5449C41.9703 26.7044 41.1395 27.0065 40.2667 27.4261C38.9742 27.1072 37.665 26.9226 36.3474 26.8639C37.3713 26.0246 38.5043 25.3448 39.7463 24.8329C41.2905 24.2035 42.9354 23.8594 44.6307 23.8258C48.2898 23.7335 51.8146 25.1434 54.433 27.7367C54.4414 27.7367 54.4498 27.7451 54.4666 27.7534C54.4834 27.7702 54.5002 27.787 54.5169 27.8038C54.5169 27.8038 54.5169 27.8206 54.5337 27.8206C57.127 30.4474 58.5117 33.9219 58.4362 37.6145C58.4026 39.1587 58.1089 40.6525 57.5886 42.0541C57.5634 42.0709 57.5298 42.0876 57.5046 42.1044C57.3032 42.331 57.2193 42.5996 57.2445 42.8681C56.5731 44.3788 55.6499 45.7383 54.475 46.9133C54.0973 47.2909 54.0973 47.912 54.475 48.2896C54.668 48.4827 54.9114 48.575 55.1632 48.575C55.4149 48.575 55.6667 48.4827 55.8513 48.2896C57.2109 46.9301 58.2767 45.3523 59.0488 43.5983C59.0572 43.5899 59.0656 43.5815 59.0824 43.5731C59.267 43.3717 59.3594 43.1199 59.351 42.8681C59.9888 41.2148 60.3413 39.4692 60.3748 37.6481C60.4588 33.4183 58.8726 29.4403 55.9017 26.4442C55.9017 26.4442 55.9017 26.4442 55.8933 26.4358L55.7926 26.3435C55.7842 26.3351 55.7758 26.3183 55.759 26.31C52.7797 23.3894 48.8437 21.8368 44.6391 21.8956H44.6223C42.6921 21.9375 40.8122 22.3236 39.0414 23.0453C37.1447 23.8258 35.4494 24.9588 33.9975 26.4107C33.9975 26.4107 33.9975 26.4107 33.9975 26.4191L33.4604 26.9478C31.8827 27.1156 30.3385 27.4597 28.8614 27.98L32.2184 24.6231C33.4856 23.3474 34.9291 22.2816 36.5153 21.4424C37.8497 20.7374 39.3183 20.1919 40.8877 19.831C42.7508 19.403 44.6223 19.2687 46.4686 19.4282C50.6564 19.7807 54.6093 21.6018 57.597 24.5643C57.6053 24.5643 57.6137 24.5727 57.6305 24.5811C57.6473 24.6063 57.6809 24.6399 57.7061 24.665C57.7061 24.665 57.7061 24.6734 57.7144 24.6818C60.677 27.6695 62.4981 31.6223 62.8506 35.8101C63.0268 37.8831 62.8506 39.9476 62.3051 41.9702C61.5666 44.7564 60.1315 47.3581 58.1676 49.5065L57.9494 49.7499C57.9159 49.7835 57.8823 49.817 57.8571 49.859C57.7648 49.901 57.6809 49.9513 57.6053 50.0269C55.8681 51.7641 52.8301 51.7641 51.0928 50.0269C50.7152 49.6492 50.0942 49.6492 49.7165 50.0269C49.3388 50.4045 49.3388 51.0255 49.7165 51.4032C50.9502 52.6369 52.5951 53.3251 54.3491 53.3251C55.952 53.3251 57.4459 52.7292 58.6376 51.6885C58.7803 51.6382 58.9229 51.5711 59.0404 51.4536C59.1747 51.3193 59.3006 51.1766 59.4265 51.0339L59.6111 50.8241C61.1553 49.1457 62.3806 47.207 63.2618 45.1257C63.8073 48.063 62.8758 51.0675 60.7609 53.1908C58.6292 55.3225 55.5828 56.254 52.6119 55.6833C50.8411 55.3392 49.2213 54.4748 47.9289 53.1908C47.5513 52.8131 46.9302 52.8131 46.5526 53.1908C46.1749 53.5684 46.1749 54.1895 46.5526 54.5671C48.1219 56.1281 50.0858 57.1688 52.2426 57.5884C52.3014 57.5968 52.3601 57.6052 52.4272 57.6052C53.0651 57.7143 53.7113 57.7898 54.3491 57.7898C57.2445 57.7898 60.0475 56.6485 62.1372 54.5587C64.7305 51.9655 65.8635 48.2645 65.1585 44.6641C64.999 43.8668 64.6969 43.0192 64.2689 42.1212C64.5878 40.8288 64.7724 39.5196 64.8228 38.202C65.6704 39.2342 66.3586 40.384 66.8705 41.6429C67.5 43.1871 67.8357 44.832 67.8692 46.544C67.9364 50.2534 66.5265 53.7279 63.9248 56.3379C61.3064 58.948 57.8403 60.3831 54.1225 60.2907C52.5028 60.2656 50.925 59.955 49.4312 59.3676C49.3221 59.3004 49.2046 59.2501 49.0787 59.2249C47.4673 58.5367 46.0238 57.5716 44.7902 56.3379C44.4125 55.9519 43.7915 55.9603 43.4138 56.3379C43.0362 56.7156 43.0362 57.3366 43.4138 57.7143C44.8657 59.1746 46.5777 60.3075 48.4912 61.0964C50.2788 61.8266 52.1587 62.2042 54.0973 62.2378C54.1896 62.2378 54.282 62.2378 54.3743 62.2378C58.5033 62.2378 62.3806 60.6348 65.3096 57.7143C68.2972 54.7266 69.9002 50.7486 69.8247 46.5104C69.7911 44.5634 69.405 42.6751 68.6833 40.9127C67.9028 38.9992 66.7698 37.2872 65.3012 35.8353L64.7724 35.2982C64.613 33.7288 64.2689 32.1846 63.7486 30.716L67.0971 34.0645C67.0971 34.0645 67.1055 34.0645 67.1139 34.0729C68.3896 35.3569 69.4638 36.8088 70.303 38.395C71.008 39.7294 71.5451 41.2064 71.906 42.7758C72.334 44.6389 72.4599 46.5188 72.3004 48.3652C71.9312 52.5697 70.0848 56.531 67.1055 59.5103L67.1391 59.5354Z" fill="#0A4264"/>
</g>
<defs>
<clipPath id="clip0_1_7030">
<rect width="90" height="90" fill="white"/>
</clipPath>
</defs>
</svg>
