<svg width="36" height="36" viewBox="0 0 36 36" fill="none" xmlns="http://www.w3.org/2000/svg">
<circle cx="18.375" cy="19.125" r="16.125" fill="white"/>
<path d="M13.6351 27.74H10.0096V16.2472H13.6351V27.74ZM11.8198 14.6545C11.4085 14.6522 11.0072 14.5284 10.6664 14.2987C10.3256 14.0689 10.0606 13.7436 9.90494 13.3637C9.74924 12.9839 9.70979 12.5665 9.79156 12.1643C9.87333 11.762 10.0727 11.393 10.3644 11.1037C10.6561 10.8144 11.0272 10.6179 11.4308 10.5389C11.8343 10.4598 12.2523 10.5019 12.6319 10.6597C13.0116 10.8175 13.3358 11.084 13.5639 11.4256C13.7919 11.7672 13.9134 12.1685 13.913 12.5789C13.9169 12.8537 13.8653 13.1265 13.7613 13.3809C13.6573 13.6354 13.5031 13.8663 13.3077 14.06C13.1124 14.2537 12.88 14.4062 12.6244 14.5083C12.3687 14.6104 12.0951 14.6602 11.8198 14.6545ZM26.9983 27.75H23.3745V21.4713C23.3745 19.6197 22.5858 19.0481 21.5676 19.0481C20.4925 19.0481 19.4375 19.857 19.4375 21.5181V27.75H15.812V16.2555H19.2985V17.8482H19.3454C19.6954 17.1413 20.9212 15.933 22.7917 15.933C24.8147 15.933 27 17.1313 27 20.6408L26.9983 27.75Z" fill="#0A4264"/>
</svg>
