<svg width="130" height="50" viewBox="0 0 130 50" fill="none" xmlns="http://www.w3.org/2000/svg">
<path d="M0 33.3337L16.6751 50.0004L33.3503 33.3337L16.6751 16.667L0 33.3337Z" fill="#FF8200"/>
<path d="M16.6751 0L0 16.6667L16.6751 33.3335L33.3503 16.6667L16.6751 0Z" fill="#FF6900"/>
<path d="M41.4604 30.774L43.6789 28.1146C45.2155 29.3805 46.8248 30.182 48.7705 30.182C50.3071 30.182 51.2345 29.5718 51.2345 28.5699V28.5244C51.2345 27.5772 50.6526 27.0854 47.7977 26.3568C44.3608 25.4825 42.1423 24.5262 42.1423 21.1473V21.1018C42.1423 18.0052 44.6245 15.9561 48.1159 15.9561C50.6072 15.9561 52.7257 16.7393 54.4532 18.1236L52.4984 20.947C50.989 19.8996 49.4979 19.2621 48.0614 19.2621C46.6248 19.2621 45.8701 19.9178 45.8701 20.7466V20.7921C45.8701 21.9124 46.5975 22.2767 49.5525 23.0326C53.0166 23.9342 54.9623 25.182 54.9623 28.151V28.1965C54.9623 31.5845 52.3802 33.488 48.6978 33.488C46.1156 33.488 43.5062 32.5863 41.4604 30.7557" fill="#1C1C4C"/>
<path d="M67.136 26.8036V26.7581C67.136 24.8364 65.7448 23.1515 63.6991 23.1515C61.6533 23.1515 60.3077 24.7817 60.3077 26.7125V26.7581C60.3077 28.6797 61.6988 30.3646 63.7446 30.3646C65.7903 30.3646 67.136 28.7344 67.136 26.8036ZM56.6526 26.8036V26.7581C56.6526 23.0058 59.6803 19.9639 63.7446 19.9639C67.8088 19.9639 70.791 22.9602 70.791 26.7125V26.7581C70.791 30.5104 67.7633 33.5523 63.6991 33.5523C59.6349 33.5523 56.6526 30.5559 56.6526 26.8036Z" fill="#1C1C4C"/>
<path d="M72.3737 26.8036V26.7581C72.3737 23.0331 75.2286 19.9639 79.2292 19.9639C81.6932 19.9639 83.2298 20.7926 84.4482 22.1588L82.1842 24.5996C81.3568 23.7253 80.5294 23.1606 79.211 23.1606C77.3562 23.1606 76.0379 24.7908 76.0379 26.7216V26.7672C76.0379 28.7617 77.3289 30.3737 79.3565 30.3737C80.6021 30.3737 81.4568 29.8364 82.3569 28.9803L84.53 31.1752C83.2662 32.5595 81.8023 33.5614 79.1929 33.5614C75.265 33.5614 72.3919 30.5377 72.3919 26.8127" fill="#1C1C4C"/>
<path d="M86.3667 28.6607V20.209H90.0763V27.495C90.0763 29.2527 90.9037 30.1544 92.3221 30.1544C93.7405 30.1544 94.6406 29.2527 94.6406 27.495V20.209H98.3502V33.2691H94.6406V31.4203C93.7859 32.5132 92.6858 33.515 90.8128 33.515C88.0124 33.515 86.3758 31.6662 86.3758 28.6699" fill="#1C1C4C"/>
<path d="M101.196 20.2001H104.906V22.8322C105.66 21.0289 106.879 19.8631 109.07 19.9542V23.8249H108.879C106.415 23.8249 104.906 25.3094 104.906 28.4333V33.2603H101.196V20.2001Z" fill="#1C1C4C"/>
<path d="M119.135 25.7107C118.917 24.0531 117.944 22.9329 116.38 22.9329C114.816 22.9329 113.844 24.0258 113.553 25.7107H119.135ZM109.916 26.8036V26.7581C109.916 23.0331 112.571 19.9639 116.38 19.9639C120.745 19.9639 122.745 23.3519 122.745 27.0586C122.745 27.35 122.718 27.6961 122.699 28.0331H113.607C113.971 29.718 115.144 30.5923 116.798 30.5923C118.044 30.5923 118.944 30.2007 119.972 29.2535L122.09 31.1297C120.872 32.6415 119.117 33.5705 116.753 33.5705C112.825 33.5705 109.925 30.82 109.925 26.8218" fill="#1C1C4C"/>
<path d="M16.6749 33.3233H33.3501L25.0034 24.999L16.6749 33.3233Z" fill="#1C1C4C"/>
<path d="M126.799 31.0205V31.4668H126.108V33.5251H125.599V31.4668H124.908V31.0205H126.799Z" fill="#1C1C4C"/>
<path d="M130 33.5251H129.481L129.3 31.9677L128.69 33.2427H128.29L127.672 31.9677L127.49 33.5251H126.972L127.281 31.0205H127.708L128.481 32.669L129.245 31.0205H129.681L129.991 33.5251H130Z" fill="#1C1C4C"/>
</svg>
