<svg width="176" height="69" viewBox="0 0 176 69" fill="none" xmlns="http://www.w3.org/2000/svg">
<g clip-path="url(#clip0_1_7174)">
<path d="M55.5938 42.0284L58.5969 38.4305C60.6769 40.1432 62.8554 41.2275 65.4892 41.2275C67.5692 41.2275 68.8246 40.402 68.8246 39.0466V38.985C68.8246 37.7036 68.0369 37.0382 64.1723 36.0525C59.52 34.8697 56.5169 33.5759 56.5169 29.0047V28.9431C56.5169 24.7538 59.8769 21.9814 64.6031 21.9814C67.9754 21.9814 70.8431 23.0411 73.1815 24.9139L70.5354 28.7336C68.4923 27.3166 66.4738 26.4541 64.5292 26.4541C62.5846 26.4541 61.5631 27.3413 61.5631 28.4625V28.5241C61.5631 30.0397 62.5477 30.5325 66.5477 31.5552C71.2369 32.775 73.8708 34.4631 73.8708 38.4798V38.5414C73.8708 43.125 70.3754 45.7002 65.3908 45.7002C61.8954 45.7002 58.3631 44.4804 55.5938 42.0038" fill="white"/>
<path d="M90.3508 36.6562V36.5946C90.3508 33.9948 88.4677 31.7153 85.6985 31.7153C82.9292 31.7153 81.1077 33.9209 81.1077 36.533V36.5946C81.1077 39.1944 82.9908 41.4739 85.76 41.4739C88.5292 41.4739 90.3508 39.2684 90.3508 36.6562ZM76.16 36.6562V36.5946C76.16 31.5182 80.2585 27.4028 85.76 27.4028C91.2615 27.4028 95.2985 31.4566 95.2985 36.533V36.5946C95.2985 41.671 91.2 45.7864 85.6985 45.7864C80.1969 45.7864 76.16 41.7327 76.16 36.6562Z" fill="white"/>
<path d="M97.4404 36.6562V36.5946C97.4404 31.5552 101.305 27.4028 106.72 27.4028C110.056 27.4028 112.136 28.5241 113.785 30.3723L110.72 33.6744C109.6 32.4916 108.48 31.7277 106.696 31.7277C104.185 31.7277 102.4 33.9332 102.4 36.5453V36.6069C102.4 39.3053 104.148 41.4862 106.893 41.4862C108.579 41.4862 109.736 40.7593 110.954 39.601L113.896 42.5705C112.185 44.4434 110.204 45.7987 106.671 45.7987C101.354 45.7987 97.4651 41.708 97.4651 36.6685" fill="white"/>
<path d="M116.381 39.1696V27.7354H121.403V37.5925C121.403 39.9705 122.523 41.1904 124.443 41.1904C126.363 41.1904 127.581 39.9705 127.581 37.5925V27.7354H132.603V45.4043H127.581V42.903C126.424 44.3816 124.935 45.737 122.399 45.737C118.609 45.737 116.393 43.2357 116.393 39.182" fill="white"/>
<path d="M136.455 27.7232H141.477V31.2841C142.498 28.8445 144.147 27.2673 147.114 27.3905V32.6271H146.855C143.52 32.6271 141.477 34.6355 141.477 38.8618V45.3921H136.455V27.7232Z" fill="white"/>
<path d="M160.739 35.1776C160.443 32.9352 159.126 31.4196 157.01 31.4196C154.893 31.4196 153.576 32.8982 153.182 35.1776H160.739ZM148.259 36.6562V36.5946C148.259 31.5552 151.853 27.4028 157.01 27.4028C162.917 27.4028 165.625 31.9864 165.625 37.0012C165.625 37.3955 165.588 37.8637 165.563 38.3196H153.256C153.748 40.5991 155.336 41.7819 157.576 41.7819C159.262 41.7819 160.48 41.2521 161.871 39.9707L164.739 42.5089C163.09 44.5543 160.714 45.811 157.514 45.811C152.197 45.811 148.271 42.09 148.271 36.6809" fill="white"/>
<path d="M171.114 42.3608V42.9646H170.178V45.7492H169.489V42.9646H168.554V42.3608H171.114Z" fill="white"/>
<path d="M175.445 45.7492H174.744L174.498 43.6423L173.673 45.3673H173.131L172.294 43.6423L172.048 45.7492H171.347L171.765 42.3608H172.344L173.39 44.591L174.424 42.3608H175.014L175.433 45.7492H175.445Z" fill="white"/>
<path d="M22.068 0.640625L43.4711 22.006L22.068 43.2974L0.664963 22.006L22.068 0.640625Z" fill="white"/>
<path d="M25.0222 44.5051L34.9422 34.6973L44.813 44.5051H25.0222Z" fill="white"/>
<path d="M10.733 36.4468L21.6007 47.1911H42.6591L21.7976 68.0143L0.394531 46.7228L10.733 36.4468Z" fill="white"/>
</g>
<defs>
<clipPath id="clip0_1_7174">
<rect width="176" height="69" fill="white"/>
</clipPath>
</defs>
</svg>
