<svg width="25" height="26" viewBox="0 0 25 26" fill="none" xmlns="http://www.w3.org/2000/svg">
<path fill-rule="evenodd" clip-rule="evenodd" d="M8.59375 9.875C8.59375 8.839 9.0053 7.84543 9.73786 7.11286C10.4704 6.3803 11.464 5.96875 12.5 5.96875C13.536 5.96875 14.5296 6.3803 15.2621 7.11286C15.9947 7.84543 16.4062 8.839 16.4062 9.875C16.4062 10.911 15.9947 11.9046 15.2621 12.6371C14.5296 13.3697 13.536 13.7812 12.5 13.7812C11.464 13.7812 10.4704 13.3697 9.73786 12.6371C9.0053 11.9046 8.59375 10.911 8.59375 9.875ZM12.5 7.53125C11.8784 7.53125 11.2823 7.77818 10.8427 8.21772C10.4032 8.65726 10.1562 9.2534 10.1562 9.875C10.1562 10.4966 10.4032 11.0927 10.8427 11.5323C11.2823 11.9718 11.8784 12.2188 12.5 12.2188C13.1216 12.2188 13.7177 11.9718 14.1573 11.5323C14.5968 11.0927 14.8438 10.4966 14.8438 9.875C14.8438 9.2534 14.5968 8.65726 14.1573 8.21772C13.7177 7.77818 13.1216 7.53125 12.5 7.53125Z" fill="#0A4264"/>
<path fill-rule="evenodd" clip-rule="evenodd" d="M1.30078 13.0002C1.30078 6.81579 6.31432 1.80225 12.4987 1.80225C18.6831 1.80225 23.6966 6.81579 23.6966 13.0002C23.6966 19.1845 18.6831 24.1981 12.4987 24.1981C6.31432 24.1981 1.30078 19.1845 1.30078 13.0002ZM12.4987 3.36475C10.5953 3.36483 8.73448 3.92869 7.15114 4.98517C5.5678 6.04165 4.33285 7.54342 3.60209 9.301C2.87134 11.0586 2.67752 12.9932 3.04509 14.8609C3.41266 16.7285 4.32516 18.4454 5.66745 19.795C5.85495 18.7814 6.22474 17.8262 6.96537 17.0575C8.07474 15.9075 9.84661 15.3439 12.4987 15.3439C15.1508 15.3439 16.9227 15.9075 18.031 17.0575C18.7727 17.8262 19.1414 18.7825 19.33 19.796C20.6726 18.4465 21.5854 16.7295 21.9532 14.8617C22.321 12.9939 22.1272 11.059 21.3964 9.3012C20.6656 7.54341 19.4305 6.04147 17.847 4.98494C16.2634 3.92841 14.4024 3.36463 12.4987 3.36475ZM17.9091 20.9741C17.8029 19.7116 17.5289 18.7866 16.907 18.1418C16.2299 17.4408 14.9768 16.9064 12.4987 16.9064C10.0206 16.9064 8.76745 17.4408 8.09037 18.1418C7.46849 18.7877 7.19453 19.7116 7.08828 20.9752C8.68368 22.0603 10.5693 22.6389 12.4987 22.6356C14.4282 22.6386 16.3138 22.0595 17.9091 20.9741Z" fill="#0A4264"/>
</svg>
