<svg width="36" height="36" viewBox="0 0 36 36" fill="none" xmlns="http://www.w3.org/2000/svg">
<circle cx="18.375" cy="18.375" r="16.125" fill="white"/>
<path fill-rule="evenodd" clip-rule="evenodd" d="M26.6759 12.9727C26.9511 13.2552 27.1488 13.6066 27.2491 13.9916C27.62 15.4126 27.62 18.376 27.62 18.376C27.62 18.376 27.62 21.3393 27.2491 22.7603C27.1488 23.1453 26.9511 23.4967 26.6759 23.7793C26.4007 24.0619 26.0575 24.2658 25.6808 24.3705C24.2939 24.751 18.7504 24.751 18.7504 24.751C18.7504 24.751 13.2069 24.751 11.8201 24.3705C11.4433 24.2658 11.1002 24.0619 10.8249 23.7793C10.5497 23.4967 10.3521 23.1453 10.2518 22.7603C9.88086 21.3393 9.88086 18.376 9.88086 18.376C9.88086 18.376 9.88086 15.4126 10.2518 13.9916C10.3521 13.6066 10.5497 13.2552 10.8249 12.9727C11.1002 12.6901 11.4433 12.4862 11.8201 12.3814C13.2069 12.001 18.7504 12.001 18.7504 12.001C18.7504 12.001 24.2939 12.001 25.6808 12.3814C26.0575 12.4862 26.4007 12.6901 26.6759 12.9727ZM21.5222 18.3764L16.533 15.8818V20.871L21.5222 18.3764Z" fill="#0A4264"/>
</svg>
